Coordinates
nRows=34
nColumns=12

# SIMM Motion File Header:
name Coordinates
datacolumns 12
datarows 34
otherdata 1
range 0.29999999999999999000 0.33300000000000002000
endheader
time	pelvis_tilt	hip_angle_r	knee_angle_r	tib_tx_r	tib_ty_r	pat_angle_r	pat_tx_r	pat_ty_r	ankle_angle_r	subtalar_angle_r	mtp_angle_r
      0.29999999999999999000	      0.00000000000005554825	     24.64385581194195800000	    -20.75348440021147700000	     -0.00099484779609957286	     -0.46680059444417776000	     13.81844081228741800000	      0.05256970320880462200	     -0.02457844160651057000	      6.78224848257274630000	      0.00000000000001025623	      0.00000000000010463775
      0.30099999999999999000	      0.00000000000005577328	     24.61127317775832800000	    -20.37337787070884000000	     -0.00108512317219138840	     -0.46674727600147775000	     13.71531329664293100000	      0.05263686641296955200	     -0.02459418070230324000	      6.81130742430431010000	      0.00000000000001032862	      0.00000000000010558732
      0.30199999999999999000	      0.00000000000005599831	     24.57869054357469800000	    -19.99327134120619900000	     -0.00117539854828320420	     -0.46669395755877774000	     13.61218578099844300000	      0.05270402961713448900	     -0.02460991979809590600	      6.84036636603587400000	      0.00000000000001040101	      0.00000000000010653689
      0.30299999999999999000	      0.00000000000005621992	     24.54519948432132600000	    -19.61661937356549100000	     -0.00126726335733650920	     -0.46664278866277442000	     13.50152811796042200000	      0.05276889837474165600	     -0.02462526118890734700	      6.86943727402029230000	      0.00000000000001048977	      0.00000000000010745394
      0.30399999999999999000	      0.00000000000005644154	     24.51170842506795100000	    -19.23996740592478400000	     -0.00135912816638981430	     -0.46659161976677110000	     13.39087045492240000000	      0.05283376713234882300	     -0.02464060257971878400	      6.89850818200471050000	      0.00000000000001057853	      0.00000000000010837099
      0.30499999999999999000	      0.00000000000005666293	     24.47778247033762300000	    -18.86553924581501100000	     -0.00145149813110512680	     -0.46654161547174366000	     13.27594197021084300000	      0.05289750616721909700	     -0.02465578030000563700	      6.92753787318754630000	      0.00000000000001066812	      0.00000000000010928687
      0.30599999999999999000	      0.00000000000005688412	     24.44342162013033400000	    -18.49333489323617400000	     -0.00154437325148244660	     -0.46649277577769205000	     13.15674266382575500000	      0.05296011547935249000	     -0.02467079434976790800	      6.95652634756880060000	      0.00000000000001075853	      0.00000000000011020156
      0.30700000000000000000	      0.00000000000005710530	     24.40906076992304100000	    -18.12113054065733700000	     -0.00163724837185976650	     -0.46644393608364043000	     13.03754335744066100000	      0.05302272479148588400	     -0.02468580839953017600	      6.98551482195005400000	      0.00000000000001084893	      0.00000000000011111625
      0.30800000000000000000	      0.00000000000005733491	     24.37397916985711200000	    -17.75400215333253900000	     -0.00173026316767093060	     -0.46639734132498811000	     12.90971489620952400000	      0.05308343101751918100	     -0.02470063294594214100	      7.01425431112132270000	      0.00000000000001093263	      0.00000000000011203728
      0.30900000000000000000	      0.00000000000005756451	     24.33889756979118200000	    -17.38687376600774200000	     -0.00182327796348209480	     -0.46635074656633579000	     12.78188643497838600000	      0.05314413724355247800	     -0.02471545749235410500	      7.04299380029259140000	      0.00000000000001101633	      0.00000000000011295831
      0.31000000000000000000	      0.00000000000005779288	     24.30355128473013700000	    -17.02227097173906500000	     -0.00191601285125073630	     -0.46630512322996781000	     12.65017677677346300000	      0.05320412984356992500	     -0.02473025039907345000	      7.07155648865981770000	      0.00000000000001108914	      0.00000000000011389043
      0.31100000000000000000	      0.00000000000005802000	     24.26794031467397200000	    -16.66019377052649400000	     -0.00200846783097685670	     -0.46626047131588422000	     12.51458592159477100000	      0.05326340881757152300	     -0.02474501166610017600	      7.09994237622299980000	      0.00000000000001115106	      0.00000000000011483365
      0.31200000000000000000	      0.00000000000005824908	     24.23213445541967200000	    -16.30092217939050100000	     -0.00210031083416242380	     -0.46621675690159226000	     12.37517911496014700000	      0.05332209782534102400	     -0.02475978739652638600	      7.12815998683140870000	      0.00000000000001121121	      0.00000000000011577692
      0.31300000000000000000	      0.00000000000005848011	     24.19613370696723500000	    -15.94445619833108600000	     -0.00219154186080743750	     -0.46617397998709198000	     12.23195635686959200000	      0.05338019686687842800	     -0.02477457759035208900	      7.15620932048504340000	      0.00000000000001126957	      0.00000000000011672024
      0.31400000000000000000	      0.00000000000005871114	     24.16013295851479700000	    -15.58799021727167200000	     -0.00228277288745245070	     -0.46613120307259170000	     12.08873359877903700000	      0.05343829590841583200	     -0.02478936778417778800	      7.18425865413867730000	      0.00000000000001132794	      0.00000000000011766355
      0.31500000000000000000	      0.00000000000005895380	     24.12387369779638000000	    -15.23846768288395700000	     -0.00237193642794304670	     -0.46609044495743124000	     11.93733406193796400000	      0.05349531192608591300	     -0.02480427379616174200	      7.21205369779464080000	      0.00000000000001138982	      0.00000000000011859979
      0.31600000000000000000	      0.00000000000005919646	     24.08761443707796300000	    -14.88894514849624100000	     -0.00246109996843364230	     -0.46604968684227077000	     11.78593452509689100000	      0.05355232794375599400	     -0.02481917980814569600	      7.23984874145060430000	      0.00000000000001145169	      0.00000000000011953603
      0.31700000000000000000	      0.00000000000005944322	     24.05130900646912900000	    -14.54322685979896900000	     -0.00254889467176925340	     -0.46600989899257794000	     11.63065784956925300000	      0.05360891236212580300	     -0.02483418151864772200	      7.26752431392742700000	      0.00000000000001151267	      0.00000000000012046407
      0.31800000000000000000	      0.00000000000005969408	     24.01495740596988400000	    -14.20131281679213400000	     -0.00263532053794988390	     -0.46597108140835281000	     11.47150403535506100000	      0.05366506518119533400	     -0.02484927892766782000	      7.29508041522511070000	      0.00000000000001157276	      0.00000000000012138391
      0.31900000000000001000	      0.00000000000005994495	     23.97860580547063600000	    -13.85939877378530500000	     -0.00272174640413051180	     -0.46593226382412761000	     11.31235022114086200000	      0.05372121800026487300	     -0.02486437633668791800	      7.32263651652279270000	      0.00000000000001163284	      0.00000000000012230374
      0.32000000000000001000	      0.00000000000006019806	     23.94228736729827400000	    -13.52478513289184800000	     -0.00280523003321861810	     -0.46589511867255889000	     11.14663135172034500000	      0.05377675961617597900	     -0.02487969829925303400	      7.34988616398052310000	      0.00000000000001171466	      0.00000000000012317709
      0.32100000000000001000	      0.00000000000006045116	     23.90596892912591200000	    -13.19017149199839200000	     -0.00288871366230672440	     -0.46585797352099012000	     10.98091248229982500000	      0.05383230123208708500	     -0.02489502026181815400	      7.37713581143825260000	      0.00000000000001179647	      0.00000000000012405043
      0.32200000000000001000	      0.00000000000006071358	     23.86981598338373100000	    -12.86335401482384100000	     -0.00296882660119687560	     -0.46582243674002727000	     10.80916558685699500000	      0.05388735194833039300	     -0.02491060084203151200	      7.40404510837243190000	      0.00000000000001187739	      0.00000000000012493252
      0.32300000000000001000	      0.00000000000006097600	     23.83366303764155300000	    -12.53653653764929000000	     -0.00304893954008702730	     -0.46578689995906436000	     10.63741869141416400000	      0.05394240266457370900	     -0.02492618142224487300	      7.43095440530661210000	      0.00000000000001195831	      0.00000000000012581461
      0.32400000000000001000	      0.00000000000006124188	     23.79769430929852100000	    -12.21439917374680000000	     -0.00312695970710518980	     -0.46575223202441646000	     10.46272174405385200000	      0.05399721250107966000	     -0.02494191142472175100	      7.45772184658888190000	      0.00000000000001203815	      0.00000000000012670741
      0.32500000000000001000	      0.00000000000006151124	     23.76190979835463300000	    -11.89694192311636900000	     -0.00320288710225136640	     -0.46571843293608345000	     10.28507474477605900000	      0.05405178145784825900	     -0.02495779084946214700	      7.48434743221924140000	      0.00000000000001211691	      0.00000000000012761092
      0.32600000000000001000	      0.00000000000006178059	     23.72612528741074600000	    -11.57948467248594100000	     -0.00327881449739754040	     -0.46568463384775050000	     10.10742774549826500000	      0.05410635041461685200	     -0.02497367027420254600	      7.51097301784960080000	      0.00000000000001219567	      0.00000000000012851443
      0.32700000000000001000	      0.00000000000006205134	     23.69087077229548700000	    -11.27200739185055100000	     -0.00335019556302782510	     -0.46565251270293129000	      9.92480007723940890000	      0.05416047712490956700	     -0.02498984564491544400	      7.53727568871225720000	      0.00000000000001226324	      0.00000000000012943098
      0.32800000000000001000	      0.00000000000006232209	     23.65561625718022400000	    -10.96453011121516000000	     -0.00342157662865810990	     -0.46562039155811213000	      9.74217240898055260000	      0.05421460383520227500	     -0.02500602101562834600	      7.56357835957491260000	      0.00000000000001233080	      0.00000000000013034754
      0.32900000000000001000	      0.00000000000006259064	     23.62064912766312500000	    -10.66172988462776900000	     -0.00349081026761383300	     -0.46558899623583827000	      9.55769376496932570000	      0.05426854046674032400	     -0.02502232368024375600	      7.58965336791323080000	      0.00000000000001238923	      0.00000000000013126684
      0.33000000000000002000	      0.00000000000006285700	     23.58596938374419200000	    -10.36360671208836100000	     -0.00355789647989500140	     -0.46555832673610970000	      9.37136414520573520000	      0.05432228701952370600	     -0.02503875363876167600	      7.61550071372721060000	      0.00000000000001243852	      0.00000000000013218888
      0.33100000000000002000	      0.00000000000006312141	     23.55162068468303000000	    -10.07032205044499100000	     -0.00362278007411243010	     -0.46552835678452503000	      9.18359700697058830000	      0.05437580961870661800	     -0.02505528791563448000	      7.64104881800970490000	      0.00000000000001248728	      0.00000000000013312353
      0.33200000000000002000	      0.00000000000006338387	     23.51760303047964100000	     -9.78187589969765980000	     -0.00368546105026611950	     -0.46549908638108428000	      8.99439235026388490000	      0.05442910826428906000	     -0.02507192651086217000	      7.66629768076071460000	      0.00000000000001253553	      0.00000000000013407079
      0.33300000000000002000	      0.00000000000006364634	     23.48358537627625300000	     -9.49342974895033010000	     -0.00374814202641980810	     -0.46546981597764359000	      8.80518769355717980000	      0.05448240690987150200	     -0.02508856510608985600	      7.69154654351172430000	      0.00000000000001258378	      0.00000000000013501805
